<svg viewBox="0 0 800 500" fill="none" xmlns="http://www.w3.org/2000/svg">
  <rect width="800" height="500" fill="#F5F0EB"/>
  <rect x="120" y="180" width="560" height="200" rx="8" fill="#1A2E4A" opacity="0.04" stroke="#D4CFC8" stroke-width="1"/>
  <rect x="140" y="200" width="120" height="80" rx="4" fill="#1A2E4A" opacity="0.06"/>
  <rect x="280" y="200" width="380" height="30" rx="4" fill="#1A2E4A" opacity="0.04"/>
  <rect x="280" y="245" width="320" height="30" rx="4" fill="#1A2E4A" opacity="0.04"/>
  <rect x="280" y="290" width="200" height="30" rx="4" fill="#1A2E4A" opacity="0.04"/>
  <rect x="140" y="300" width="120" height="60" rx="4" fill="#1A2E4A" opacity="0.03"/>
  <rect x="120" y="400" width="560" height="2" fill="#D4CFC8" opacity="0.5"/>
  <rect x="160" y="420" width="80" height="60" rx="4" fill="#1A2E4A" opacity="0.03"/>
  <rect x="260" y="420" width="80" height="60" rx="4" fill="#1A2E4A" opacity="0.03"/>
  <rect x="360" y="420" width="80" height="60" rx="4" fill="#1A2E4A" opacity="0.03"/>
  <circle cx="160" cy="130" r="20" fill="#1A2E4A" opacity="0.04"/>
  <circle cx="210" cy="130" r="8" fill="#1A2E4A" opacity="0.03"/>
  <circle cx="250" cy="130" r="8" fill="#1A2E4A" opacity="0.03"/>
  <circle cx="290" cy="130" r="8" fill="#1A2E4A" opacity="0.03"/>
  <rect x="680" y="100" width="20" height="20" rx="4" fill="#FF5252" opacity="0.3"/>
  <rect x="680" y="130" width="20" height="20" rx="4" fill="#FFB300" opacity="0.3"/>
  <rect x="680" y="160" width="20" height="20" rx="4" fill="#4CAF50" opacity="0.3"/>
</svg>
