<svg viewBox="0 0 800 500" fill="none" xmlns="http://www.w3.org/2000/svg">
  <rect width="800" height="500" fill="#F5F0EB"/>
  <circle cx="400" cy="250" r="180" fill="#1A2E4A" opacity="0.03"/>
  <circle cx="400" cy="250" r="120" fill="#1A2E4A" opacity="0.05"/>
  <circle cx="400" cy="250" r="60" fill="#1A2E4A" opacity="0.08"/>
  <path d="M200 250h400M400 100v300" stroke="#1A2E4A" stroke-width="0.5" opacity="0.1"/>
  <rect x="160" y="140" width="480" height="220" rx="12" fill="#1A2E4A" opacity="0.04" stroke="#D4CFC8" stroke-width="1"/>
  <circle cx="300" cy="250" r="40" fill="#1A2E4A" opacity="0.06"/>
  <circle cx="500" cy="250" r="40" fill="#1A2E4A" opacity="0.06"/>
  <circle cx="300" cy="180" r="8" fill="#1A2E4A" opacity="0.1"/>
  <circle cx="500" cy="180" r="8" fill="#1A2E4A" opacity="0.1"/>
  <circle cx="300" cy="320" r="8" fill="#1A2E4A" opacity="0.1"/>
  <circle cx="500" cy="320" r="8" fill="#1A2E4A" opacity="0.1"/>
  <circle cx="400" cy="250" r="20" fill="#1A2E4A" opacity="0.15"/>
  <line x1="300" y1="250" x2="380" y2="250" stroke="#1A2E4A" stroke-width="1" opacity="0.15"/>
  <line x1="420" y1="250" x2="500" y2="250" stroke="#1A2E4A" stroke-width="1" opacity="0.15"/>
  <line x1="400" y1="150" x2="400" y2="230" stroke="#1A2E4A" stroke-width="1" opacity="0.15"/>
  <line x1="400" y1="270" x2="400" y2="350" stroke="#1A2E4A" stroke-width="1" opacity="0.15"/>
  <rect x="280" y="230" width="240" height="40" rx="6" fill="#1A2E4A" opacity="0.08"/>
</svg>
